<?xml version="1.0" encoding="UTF-8" standalone="no"?>
<svg
   xmlns:dc="http://purl.org/dc/elements/1.1/"
   xmlns:cc="http://creativecommons.org/ns#"
   xmlns:rdf="http://www.w3.org/1999/02/22-rdf-syntax-ns#"
   xmlns:svg="http://www.w3.org/2000/svg"
   xmlns="http://www.w3.org/2000/svg"
   xmlns:sodipodi="http://sodipodi.sourceforge.net/DTD/sodipodi-0.dtd"
   xmlns:inkscape="http://www.inkscape.org/namespaces/inkscape"
   inkscape:version="1.0 (4035a4fb49, 2020-05-01)"
   sodipodi:docname="Knots For Happiness Logo SVG.svg"
   viewBox="0 0 960 701.12"
   height="701.12"
   width="960"
   xml:space="preserve"
   id="svg2"
   version="1.1"><metadata
     id="metadata8"><rdf:RDF><cc:Work
         rdf:about=""><dc:format>image/svg+xml</dc:format><dc:type
           rdf:resource="http://purl.org/dc/dcmitype/StillImage" /><dc:title></dc:title></cc:Work></rdf:RDF></metadata><defs
     id="defs6"><clipPath
       id="clipPath18"
       clipPathUnits="userSpaceOnUse"><path
         id="path16"
         d="M 0,525.84 H 720 V 0 H 0 Z" /></clipPath></defs><sodipodi:namedview
     inkscape:current-layer="g10"
     inkscape:window-maximized="1"
     inkscape:window-y="-8"
     inkscape:window-x="-8"
     inkscape:cy="298.43212"
     inkscape:cx="480"
     inkscape:zoom="0.76734368"
     showgrid="false"
     id="namedview4"
     inkscape:window-height="657"
     inkscape:window-width="1280"
     inkscape:pageshadow="2"
     inkscape:pageopacity="0"
     guidetolerance="10"
     gridtolerance="10"
     objecttolerance="10"
     borderopacity="1"
     bordercolor="#666666"
     pagecolor="#ffffff" /><g
     transform="matrix(1.3333333,0,0,-1.3333333,0,701.12)"
     inkscape:label="Knots For Happiness Logo AI"
     inkscape:groupmode="layer"
     id="g10"><g
       id="g12"><g
         clip-path="url(#clipPath18)"
         id="g14"><g
           transform="translate(343.6807,500.4054)"
           id="g20"><path
             id="path22"
             style="fill:#000000;fill-opacity:1;fill-rule:nonzero;stroke:none"
             d="m 0,0 c -63.401,0 -123.008,-24.692 -167.839,-69.528 -44.832,-44.836 -69.522,-104.449 -69.522,-167.856 0,-63.408 24.69,-123.02 69.522,-167.856 44.831,-44.836 104.438,-69.529 167.839,-69.529 63.401,0 123.009,24.693 167.84,69.529 44.832,44.836 69.521,104.448 69.521,167.856 0,63.407 -24.689,123.02 -69.521,167.856 C 123.009,-24.692 63.401,0 0,0 m 0,-486.769 c -66.607,0 -129.227,25.941 -176.325,73.043 -47.098,47.103 -73.036,109.729 -73.036,176.342 0,66.613 25.938,129.238 73.036,176.341 C -129.227,-13.94 -66.607,12 0,12 c 66.607,0 129.228,-25.94 176.325,-73.043 47.098,-47.103 73.036,-109.728 73.036,-176.341 0,-66.613 -25.938,-129.239 -73.036,-176.342 C 129.228,-460.828 66.607,-486.769 0,-486.769" /></g><g
           transform="translate(590.4103,343.2719)"
           id="g24"><path
             id="path26"
             style="fill:#e6e6e6;fill-opacity:1;fill-rule:evenodd;stroke:none"
             d="M 0,0 C -2.538,-0.699 -3.953,0.481 -6.232,2.184 -3.058,3.739 -1.755,2.249 0,0 m -42.3,-123.092 c 4.131,2.676 4.484,2.638 12.891,-1.809 -4.115,0.577 -8.229,1.155 -12.891,1.809 m 157.214,-45.59 c 0.137,0.482 0.274,0.965 0.411,1.447 -25.766,15.476 -51.956,29.852 -77.817,45.176 1.864,-0.134 3.577,-0.744 5.255,-1.474 7.901,-3.435 15.79,-6.908 23.688,-10.352 1.227,-0.536 2.834,-1.857 3.655,-1.338 3.857,2.443 7.027,-0.792 10.494,-1.352 0.267,-0.043 0.578,0.345 0.694,0.419 0.34,1.577 -1.743,1.264 -1.382,3.161 3.042,-0.418 5.738,-2.737 8.856,-1.949 -8.872,5.283 -18.317,8.696 -27.212,13.691 0.126,0.429 0.253,0.859 0.378,1.289 10.735,-3.779 21.471,-7.557 32.206,-11.335 0.122,0.462 0.245,0.925 0.367,1.387 -15.678,9.846 -32.788,15.636 -48.453,25.633 6.172,-1.592 12.185,-3.754 18.21,-5.862 1.043,-0.364 2.892,-1.436 3.08,-0.654 1.36,5.653 3.974,1.143 5.73,0.992 3.217,-0.275 6.376,-1.592 9.56,-2.475 -4.617,5.147 -10.697,6.245 -16.601,10.967 6.395,0.107 11.269,-3.746 17.839,-2.504 -5.011,4.612 -10.23,5.84 -14.675,9.669 1.524,0.916 3.125,-0.41 4.044,1.864 -1.376,3.046 -4.737,2.975 -6.595,5.545 1.286,1.176 2.52,0.008 3.736,0.043 0.927,0.028 2.037,-0.226 2.464,1.012 0.596,1.729 -0.708,2.409 -1.578,3.105 -1.72,1.373 -3.485,2.674 -5.295,3.853 -5.929,3.861 -11.803,7.877 -17.857,11.415 -6.551,3.829 -11.5,10.09 -16.737,15.941 -1.363,1.522 -2.482,3.41 -2.39,5.571 0.987,2.087 3.334,0.656 4.299,3.136 -4.956,1.643 -9.01,4.382 -12.686,8.019 -1.324,1.31 -2.6,2.654 -3.11,4.751 -0.823,3.382 0.555,5.203 3.404,4.631 1.153,-0.231 2.272,-1.948 3.546,-0.261 -6.267,6.009 -12.762,11.164 -20.923,12.069 -2.13,0.236 -4.273,1.193 -5.491,4.189 5.011,1.881 9.749,2.75 14.615,-0.063 C 8.666,-5.719 5.052,-1.947 1.372,1.73 -3.65,6.749 -9.57,9.193 -15.896,10.586 c -7.134,1.57 -13.998,4.584 -21.096,6.488 -16.925,4.538 -34.12,6.932 -51.145,10.63 -8.238,1.79 -16.341,4.693 -24.616,6.027 -14.945,2.408 -29.747,5.915 -44.668,8.423 -11.967,2.012 -23.965,4.014 -36.003,5.007 -13.335,1.1 -26.622,3.008 -40.01,3.343 -15.232,0.381 -30.466,2.177 -45.677,1.85 -14.292,-0.306 -28.574,-1.216 -42.893,-1.214 -15.422,0.003 -30.838,-1.007 -46.232,-2.431 -29.551,-2.735 -58.853,-7.437 -87.443,-17.345 -34.81,-12.063 -68.595,-27.608 -101.223,-46.919 -0.771,-0.456 -2.049,-0.619 -1.928,-2.285 3.381,0.256 6.697,0.507 10.012,0.758 0.129,-0.515 0.257,-1.031 0.385,-1.547 -8.902,-4.787 -18.078,-9.009 -25.273,-17.809 6.31,-0.233 12.449,1.756 18.764,1.098 -1.169,-4.471 -3.715,-6.341 -6.624,-7.853 -3.762,-1.958 -7.456,-4.12 -11.179,-6.194 6.078,-0.848 11.87,1.232 17.677,0.477 0.393,-2.068 -1.987,-1.48 -1.514,-3.501 1.602,-0.884 3.545,1.182 5.759,-1.055 -8.135,-5.228 -16.667,-8.471 -25.485,-14.643 7.94,-0.003 14.444,2.143 20.748,1.818 -0.07,-5.645 -3.475,-6.747 -6.56,-8.536 -2.644,-1.534 -5.74,-2.03 -8.027,-5.009 6.1,0.034 11.938,1.934 18.081,1.565 -1.687,-3.61 -5.296,-3.137 -7.687,-6.628 10.251,1.325 19.599,2.533 28.948,3.74 0.111,-0.432 0.222,-0.864 0.334,-1.296 -10.07,-6.541 -20.943,-11.017 -31.995,-17.765 2.617,0.153 4.263,0.184 5.899,0.364 1.48,0.163 2.943,0.549 4.423,0.724 1.292,0.152 2.636,-0.077 3.888,0.257 2.325,0.622 0.494,-2.616 1.627,-2.613 2.037,0.006 4.074,0.329 6.108,0.566 3.08,0.358 6.156,0.756 9.339,1.15 -0.307,-3.088 -3.042,-2.582 -3.683,-4.761 3.796,0.37 7.469,0.729 11.143,1.088 -7.475,-8.268 -16.917,-11 -25.781,-16.922 9.803,0.066 18.704,2.98 28.371,2.583 -1.513,-2.86 -4.07,-2.24 -4.859,-4.828 2.772,-0.659 5.339,1.618 8.342,-0.642 -2.483,-1.549 -4.49,-3.049 -6.646,-4.073 -2.044,-0.972 -0.491,-4.692 -3.244,-5.358 -2.207,-0.534 -4.613,-1.613 -6.372,-4.432 8.803,2.008 17.345,3.955 25.888,5.904 0.1,-0.418 0.201,-0.835 0.302,-1.252 -9.74,-5.82 -19.48,-11.639 -30.057,-17.96 4.511,-0.687 7.83,2.819 11.876,0.43 -5.817,-4.849 -12.309,-6.637 -18.13,-11.503 11.427,1.584 21.948,5.327 32.787,6.136 0.192,-0.737 0.385,-1.474 0.576,-2.211 -8.956,-5.288 -17.913,-10.576 -26.87,-15.865 0.091,-0.253 0.182,-0.507 0.274,-0.76 14.205,3.135 28.41,6.27 42.614,9.406 -9.676,-6.933 -19.573,-12.692 -29.46,-18.478 -1.34,-0.785 -2.774,-1.498 -3.865,-2.671 -0.376,-0.405 1.575,-2.297 -0.536,-3.086 -1.406,-0.526 -2.704,-1.521 -4.022,-2.372 -0.755,-0.487 -1.773,-0.485 -2.403,-2.288 11.014,2.54 21.72,5.009 32.426,7.478 -7.372,-6.484 -15.784,-10.135 -23.831,-15.334 1.79,-0.69 3.191,0.157 4.628,0.337 1.664,0.209 3.406,0.257 4.952,0.939 2.31,1.02 0.377,-2.883 2.006,-2.382 0.541,0.167 1.087,0.316 1.634,0.448 12.958,3.153 25.913,6.311 38.875,9.435 1.105,0.267 2.248,0.302 3.373,0.444 0.079,-0.473 0.158,-0.946 0.237,-1.419 -13.655,-7.642 -27.581,-14.591 -40.664,-24.02 18.385,4.412 36.769,8.823 55.259,13.26 -0.168,-1.489 -1.006,-1.667 -1.635,-2.031 -2.694,-1.56 -5.418,-3.034 -8.12,-4.574 -2.7,-1.54 -5.376,-3.145 -8.081,-4.675 -2.873,-1.627 -5.688,-3.496 -8.676,-4.702 -2.522,-1.018 -1.768,-5.103 -4.648,-6.062 -2.515,-0.837 -5.447,-1.872 -7.949,-5.371 22.933,5.682 44.992,11.177 67.061,16.608 20.98,5.163 41.968,10.273 62.956,15.38 28.652,6.97 57.328,13.789 85.955,20.909 24.991,6.215 50.086,11.649 75.432,15.015 38.677,5.136 77.498,6.497 116.374,5.506 30.847,-0.786 61.669,-2.367 92.448,-5.139 1.951,-0.175 4.137,-1.178 7.126,1.359 -16.661,1.95 -32.176,3.766 -47.69,5.582 0.031,0.493 0.062,0.984 0.093,1.476 17.664,-0.601 35.292,-2.524 52.975,-3.205 -9.914,3.677 -20.307,3.676 -30.265,6.79 10.53,0.481 20.939,-1.586 31.391,-1.868 0.031,0.538 0.064,1.075 0.095,1.613 -24.565,3.927 -49.13,7.855 -73.696,11.782 6.878,0.746 13.759,-0.793 20.427,0.092 6.645,0.883 13.574,0.346 21.11,4.202 -16.326,2.882 -31.844,3.482 -46.979,7.5 12.843,0.134 25.637,-0.683 38.429,-0.641 9.078,0.031 17.653,-2.441 26.247,-5.5 22.888,-8.144 45.697,-16.603 68.246,-26.113 6.693,-2.822 13.56,-5.118 20.059,-8.505 6.413,-3.342 13.021,-3.742 20.084,-3.352 -5.693,3.579 -11.386,7.159 -17.079,10.739 0.107,0.329 0.214,0.658 0.321,0.987 6.315,-2.661 12.63,-5.322 18.945,-7.983" /></g><g
           transform="translate(623.6138,262.9837)"
           id="g28"><path
             id="path30"
             style="fill:#2a2a2a;fill-opacity:1;fill-rule:evenodd;stroke:none"
             d="M 0,0 C 0,2.419 1.403,4.207 4.208,5.362 H 4.703 C 4.043,3.272 2.475,1.485 0,0 m -25.165,0 c 0,2.419 1.402,4.207 4.208,5.362 h 0.495 C -21.122,3.272 -22.69,1.485 -25.165,0 m -160.481,-8.25 h -0.495 v 0.578 c 1.651,4.29 4.015,7.26 7.096,8.909 h 1.238 l 1.072,-0.577 c 0,-0.936 -2.97,-3.906 -8.911,-8.91 m 149.424,9.9 -2.475,-2.392 h -0.495 c 0.165,0.825 1.155,1.621 2.97,2.392 M 25.495,-2.97 H 23.103 C 14.027,-10.065 8.086,-13.612 5.281,-13.612 c -1.046,4.785 -2.228,7.92 -3.548,9.405 5.169,4.29 7.756,7.094 7.756,8.414 0,2.75 -1.403,4.125 -4.208,4.125 H 2.97 c -3.906,0 -6.462,-2.557 -7.673,-7.672 v -1.897 c 0.487,-0.96 0.933,-1.862 1.352,-2.73 -8.348,-6.425 -13.864,-9.645 -16.534,-9.645 -1.045,4.785 -2.227,7.92 -3.548,9.405 5.17,4.29 7.756,7.094 7.756,8.414 0,2.75 -1.402,4.125 -4.208,4.125 h -2.31 c -3.906,0 -6.463,-2.557 -7.673,-7.672 v -1.897 c 0.562,-1.108 1.063,-2.132 1.536,-3.117 -7.537,-6.358 -13.55,-9.691 -18.038,-10.001 h -0.578 c 0,1.265 0.99,4.043 2.971,8.333 8.746,2.529 13.119,4.867 13.119,7.012 0,2.475 -1.624,3.877 -4.868,4.207 h -1.073 L -41.007,3.96 c -2.612,-2.809 -4.662,-4.896 -6.155,-6.27 h -0.033 c -0.147,-0.144 -0.283,-0.276 -0.427,-0.417 -1.171,-1.041 -1.937,-1.563 -2.296,-1.563 v -0.674 c -7.196,-6.969 -11.245,-10.463 -12.129,-10.463 4.73,10.89 7.096,17.242 7.096,19.057 v 2.31 c -0.606,1.155 -1.184,1.732 -1.733,1.732 h -2.393 c -2.97,0 -7.124,-3.547 -12.458,-10.642 h -0.66 l 0.66,1.238 v 1.154 c 0,0.715 -0.413,1.127 -1.238,1.238 h -1.733 c -1.835,-1.934 -3.336,-3.811 -4.513,-5.631 -5.119,-3.637 -9.862,-6.633 -14.216,-8.971 v 2.97 c 3.96,9.405 5.94,14.767 5.94,16.087 v 0.577 c -0.55,1.155 -1.128,1.733 -1.732,1.733 h -2.311 l -1.897,-1.238 c 0,-0.33 0.219,-0.907 0.66,-1.732 -1.177,-2.648 -2.192,-5.034 -3.054,-7.175 -5.075,-3.787 -8.165,-5.695 -9.24,-5.695 h -0.578 c 2.806,3.465 4.208,6.023 4.208,7.673 V 0.99 c 0,3.244 -1.623,4.867 -4.868,4.867 h -1.072 c -2.971,0 -6.574,-1.623 -10.809,-4.867 0,0.33 0.219,1.539 0.66,3.63 l -0.66,2.97 h -3.465 c -0.826,0 -1.238,-0.99 -1.238,-2.97 -1.105,-2.711 -2.173,-5.333 -3.211,-7.883 -4.632,-3.419 -7.484,-5.152 -8.505,-5.152 h -0.578 c 2.805,3.465 4.208,6.023 4.208,7.673 V 0.99 c 0,3.244 -1.623,4.867 -4.868,4.867 h -1.073 c -2.97,0 -6.573,-1.623 -10.808,-4.867 0,0.33 0.219,1.539 0.66,3.63 l -0.66,2.97 h -3.466 c -0.825,0 -1.237,-0.99 -1.237,-2.97 -1.112,-2.727 -2.185,-5.362 -3.229,-7.926 -6.225,-4.384 -11.347,-7.663 -15.336,-9.811 h -0.495 c 0,3.409 2.364,10.56 7.096,21.449 V 8.91 c 0,0.66 -0.386,1.072 -1.155,1.237 h -1.816 c -0.605,0 -2.392,-1.815 -5.363,-5.445 -1.045,0 -2.448,0.22 -4.208,0.66 -1.815,0 -3.795,-0.577 -5.94,-1.732 -5.941,-3.741 -8.911,-7.92 -8.911,-12.54 v -1.732 c 0.33,-1.211 1.54,-1.815 3.63,-1.815 h 1.238 c 3.63,0 7.178,2.392 10.643,7.177 h 0.578 v -0.66 c -0.825,-1.54 -1.238,-3.712 -1.238,-6.517 v -0.66 c 0,-2.31 1.21,-3.465 3.631,-3.465 h 1.815 c 3.142,0 7.425,1.979 12.837,5.918 -11.597,-28.526 -18.437,-45.602 -20.51,-51.209 v -1.237 l 2.97,-0.578 h 1.238 c 8.086,19.69 15.594,36.134 22.525,49.333 4.895,9.68 9.845,15.207 14.851,16.582 0.825,0 1.238,-0.412 1.238,-1.237 v -1.073 c 0,-1.814 -2.393,-5.005 -7.178,-9.569 -4.786,-2.036 -7.179,-3.438 -7.179,-4.208 v -1.072 c 0,-0.825 0.413,-1.238 1.238,-1.238 h 2.393 c 1.539,0 3.519,0.99 5.94,2.97 4.088,0 8.142,0.974 12.162,2.904 -11.687,-28.747 -18.577,-45.946 -20.66,-51.577 v -1.237 l 2.97,-0.578 h 1.238 c 8.086,19.69 15.594,36.134 22.525,49.333 4.895,9.68 9.846,15.207 14.852,16.582 0.825,0 1.237,-0.412 1.237,-1.237 v -1.073 c 0,-1.814 -2.393,-5.005 -7.178,-9.569 -4.786,-2.036 -7.178,-3.438 -7.178,-4.208 v -1.072 c 0,-0.825 0.412,-1.238 1.237,-1.238 h 2.393 c 1.539,0 3.52,0.99 5.941,2.97 4.44,0 8.839,1.167 13.2,3.444 -0.657,-2.143 -0.989,-3.762 -0.989,-4.846 0,-2.31 1.211,-3.465 3.63,-3.465 h 1.816 c 3.847,1.188 7.749,3.132 11.703,5.779 -0.098,-0.642 -0.152,-1.277 -0.152,-1.902 v -0.66 c 0,-0.825 0.358,-1.237 1.072,-1.237 h 4.208 c 0.936,0 6.271,6.159 16.007,18.479 h 0.578 c -4.676,-10.505 -7.013,-16.664 -7.013,-18.479 v -2.97 l 2.97,-0.495 h 2.31 c 2.438,0 5.693,1.85 9.75,5.522 0.072,-2.19 1.463,-3.294 4.194,-3.294 h 3.466 c 5.235,0 11.241,3.079 18.014,9.231 1.355,-3.171 2.035,-5.426 2.035,-6.757 -3.024,-1.54 -5.198,-3.299 -6.518,-5.279 v -2.393 h 3.548 c 3.575,0 5.941,1.568 7.096,4.703 6.589,1.948 12.841,5.383 18.766,10.268 1.506,-3.45 2.274,-5.896 2.274,-7.299 -3.025,-1.54 -5.199,-3.299 -6.519,-5.279 v -2.393 h 3.548 c 3.575,0 5.941,1.568 7.096,4.703 7.81,2.309 15.153,6.682 22.03,13.117 v 0.495 c 0,0.769 -0.413,1.182 -1.238,1.237 M -82.427,29.452 h 1.733 c 0.99,0 3.383,0.577 7.178,1.732 v 3.63 h -3.63 c -4.346,-2.256 -6.518,-3.658 -6.518,-4.207 0,-0.771 0.412,-1.155 1.237,-1.155 M -343.981,7.293 c -0.349,-0.019 -0.692,-0.039 -1.032,-0.059 0.09,0.564 0.424,0.886 1.032,0.933 z m -5.181,-10.23 c -0.454,-0.108 -0.901,-0.279 -1.337,-0.528 -4.181,-3.96 -7.921,-6.517 -11.221,-7.672 1.155,5.28 1.733,8.056 1.733,8.332 -0.268,1.604 -0.659,2.867 -1.161,3.821 0.29,-0.015 0.59,-0.026 0.913,-0.026 h 4.208 c 0.715,0 1.073,0.632 1.073,1.897 1.935,0.159 3.925,0.307 5.949,0.449 0.615,-1.554 1.298,-2.346 2.054,-2.346 -0.761,-1.336 -1.49,-2.636 -2.211,-3.927 m -15.528,-1.6 h -0.66 v 2.31 h 0.66 z m -0.661,-2.97 h -0.578 v 2.31 h 0.578 z m -5.94,-8.91 h -0.578 v 1.732 l 0.578,5.94 c 1.76,-2.75 2.75,-4.125 2.97,-4.125 -0.495,-1.65 -1.485,-2.833 -2.97,-3.547 m -25.661,-13.365 c 0,-13.694 -5.94,-30.936 -17.821,-51.725 h -0.496 v 0.577 c 3.686,17.325 9.627,34.566 17.822,51.726 h 0.495 z m -161.47,25.987 -8.251,-2.97 h -0.66 c 0,1.374 0.825,3.354 2.475,5.94 0.825,0 2.971,-0.798 6.436,-2.392 z m 73.928,-0.742 h -0.66 v 2.31 h 0.66 z m -0.66,-2.97 h -0.578 v 2.31 h 0.578 z m -5.94,-8.91 h -0.578 v 1.732 l 0.578,5.94 c 1.759,-2.75 2.749,-4.125 2.97,-4.125 -0.495,-1.65 -1.485,-2.833 -2.97,-3.547 M -199.26,5.197 h 14.852 c 0.77,0 1.155,0.413 1.155,1.238 V 6.93 c -0.606,1.264 -1.183,1.897 -1.733,1.897 h -12.541 c 12.321,29.204 29.373,67.015 51.156,113.434 0.054,0.77 2.034,2.337 5.94,4.702 0,0.605 -0.798,1.182 -2.392,1.733 -2.036,0 -4.429,-0.771 -7.179,-2.31 -20.957,-42.569 -38.779,-81.755 -53.466,-117.559 h -69.39 c 13.532,32.339 29.374,66.768 47.525,103.287 0,0.604 -0.825,1.182 -2.475,1.732 l -2.97,-0.495 c -16.172,-31.569 -32.179,-66.41 -48.02,-104.524 -7.371,-0.441 -12.734,-0.66 -16.09,-0.66 h -5.363 c -15.659,0 -28.46,-0.208 -38.433,-0.621 -0.322,3.209 -2.078,4.829 -5.297,4.829 h -0.577 c -2.145,0 -3.934,-1.184 -5.363,-3.548 V 6.902 C -359.922,6.12 -364.938,4.975 -364.938,3.465 V 2.981 l -2.723,-0.506 c -1.992,-1.513 -3.643,-3.165 -4.967,-4.95 h -0.561 c -7.261,-6.325 -13.009,-10.285 -17.244,-11.88 h -0.578 l 12.398,28.957 h 53.857 l 1.733,-1.237 h 2.31 c 7.205,0 10.809,0.577 10.809,1.732 v 1.897 l -2.971,0.578 h -64.466 l 7.7,17.984 c 6.766,11.055 10.149,17.764 10.149,20.13 v 1.237 l -2.971,0.495 -1.237,-0.495 c -4.599,-8.47 -10.793,-21.589 -18.584,-39.351 h -72.094 c 3.575,8.194 5.363,13.144 5.363,14.849 0,0.66 -0.385,1.045 -1.155,1.155 h -1.815 l -1.155,-0.66 c -4.511,-10.229 -7.096,-15.344 -7.756,-15.344 h -36.139 c -1.98,0 -3.19,-0.606 -3.631,-1.815 0,-0.771 0.386,-1.155 1.156,-1.155 h 38.119 l -7.475,-17.519 c -0.489,-0.105 -0.968,-0.281 -1.436,-0.548 -4.181,-3.96 -7.921,-6.517 -11.221,-7.672 1.155,5.28 1.732,8.056 1.732,8.332 -0.66,3.96 -2.035,5.94 -4.125,5.94 l -3.548,-0.66 c -1.931,-1.466 -3.543,-3.063 -4.847,-4.785 h -0.764 c -8.911,-8.745 -13.861,-13.117 -14.851,-13.117 4.73,10.89 7.095,17.242 7.095,19.057 v 2.31 c -0.605,1.155 -1.183,1.732 -1.732,1.732 h -2.393 c -2.97,0 -7.124,-3.547 -12.459,-10.642 h -0.66 l 0.66,1.238 v 1.154 c 0,0.715 -0.412,1.127 -1.238,1.238 h -1.732 c -5.116,-5.391 -7.674,-10.341 -7.674,-14.85 v -0.66 c 0,-0.825 0.359,-1.237 1.073,-1.237 h 4.208 c 0.936,0 6.271,6.159 16.007,18.479 h 0.577 c -4.676,-10.505 -7.013,-16.664 -7.013,-18.479 v -2.97 l 2.97,-0.495 h 2.311 c 2.815,0 6.711,2.451 11.685,7.345 -0.088,-0.808 -0.134,-1.633 -0.134,-2.478 v -0.659 c 0,-2.036 0.771,-3.383 2.31,-4.043 h 5.363 c 3.19,2.034 4.786,3.795 4.786,5.28 4.211,0 8.229,1.398 12.057,4.177 l -18.326,-42.948 c -2.21,1.627 -3.95,2.923 -5.2,3.875 -22.277,19.139 -39.495,33.576 -51.651,43.311 v 2.475 c 25.083,12.484 45.875,24.171 62.377,35.061 16.337,11.055 31.985,23.924 46.948,38.609 v 0.577 c 0,0.66 -0.413,1.044 -1.238,1.155 h -3.63 c -12.432,-11.66 -24.313,-21.779 -35.644,-30.359 -23.103,-16.169 -45.243,-29.204 -66.42,-39.104 l 12.459,29.699 c 15.017,36.464 22.525,55.658 22.525,57.584 v 0.577 c 0,0.66 -0.413,1.073 -1.238,1.238 h -1.732 c -2.366,0 -3.934,-1.184 -4.703,-3.548 l 1.155,-0.66 c -19.802,-49.828 -30.914,-76.751 -33.334,-80.765 -1.485,-5.555 -2.834,-8.332 -4.043,-8.332 -1.76,1.65 -4.95,2.859 -9.571,3.63 h -1.733 c -4.95,0 -7.756,-2.97 -8.416,-8.91 v -1.237 c 0.771,-1.596 2.174,-2.393 4.208,-2.393 3.631,0 8.169,1.209 13.614,3.63 h 0.66 c -13.476,-33.494 -25.357,-62.203 -35.643,-86.127 -3.136,-0.99 -4.703,-1.787 -4.703,-2.392 v -7.178 l 2.97,-0.577 h 1.733 c 1.375,0 5.115,7.342 11.221,22.027 17.107,40.753 26.842,64.513 29.208,71.277 h 0.495 c 13.367,-11 27.86,-23.292 43.482,-36.876 3.313,-2.549 8.001,-6.041 14.052,-10.468 l -18.837,-44.145 c 0,-0.879 0.99,-1.485 2.97,-1.815 2.31,0 4.703,2.751 7.178,8.25 0,1.265 -0.412,1.897 -1.237,1.897 5.131,11.926 9.821,22.835 14.09,32.776 15.853,-11.532 39.479,-28.393 70.894,-50.595 8.8,-7.535 14.109,-11.303 15.924,-11.303 h 1.898 c 0.714,0 1.073,0.386 1.073,1.155 -2.036,5.501 -4.594,8.25 -7.674,8.25 l -1.237,-0.495 v 0.495 c -38.765,27.608 -65.115,46.494 -79.081,56.679 19.933,46.435 29.905,69.954 29.905,70.532 h 72.528 c -3.7,-8.487 -7.742,-17.97 -12.131,-28.462 h -0.66 l -2.31,1.898 h -0.66 l -2.971,-0.66 c 0,-0.99 1.211,-3.383 3.631,-7.177 -14.301,-33.878 -21.453,-54.833 -21.453,-62.863 0,-2.145 1.211,-3.327 3.631,-3.548 2.97,0 6.353,3.548 10.148,10.642 9.462,18.315 14.192,33.358 14.192,45.126 l -1.238,10.148 0.66,2.392 c 5.004,0 10.558,2.622 16.659,7.841 -0.32,-1.477 -0.487,-3.016 -0.487,-4.624 v -0.659 c 0,-2.036 0.771,-3.383 2.311,-4.043 h 5.363 c 3.189,2.034 4.785,3.795 4.785,5.28 3.678,0 7.209,1.066 10.595,3.186 -4.204,-7.896 -7.557,-14.832 -10.017,-20.758 0,-0.715 0.385,-1.072 1.155,-1.072 h 3.548 c 3.246,7.094 8.609,17.186 16.089,30.276 l 1.155,-0.577 c 0,-0.606 -0.577,-2.805 -1.733,-6.6 0,-2.366 1.403,-3.548 4.208,-3.548 h 1.073 c 4.07,0 9.433,3.162 16.089,9.488 v 1.237 c 0,0.66 -0.412,1.044 -1.237,1.155 h -0.578 c -1.155,0 -5.693,-2.778 -13.614,-8.332 h -0.66 c 1.265,3.135 1.898,5.115 1.898,5.94 v 2.392 c -0.495,0 -1.898,0.77 -4.208,2.31 0,0.635 0.241,1.615 0.717,2.93 15.577,0.851 33.46,1.277 53.656,1.277 h 5.281 c -22.167,-51.643 -33.251,-78.95 -33.251,-81.92 V -77.3 l 2.97,-0.66 h 0.578 c 2.256,0 3.877,0.99 4.868,2.97 0,0.66 -0.413,1.072 -1.238,1.237 h -0.66 c 8.746,22.055 19.637,48.179 32.674,78.373 12.155,0.825 29.62,1.237 52.393,1.237 10.12,-0.441 15.842,-0.66 17.162,-0.66 -34.875,-83.487 -52.889,-127.458 -54.044,-131.913 0,-3.135 1.403,-4.702 4.208,-4.702 h 1.733 l 1.238,0.66 c 0,1.045 -0.413,2.227 -1.238,3.547 v 0.495 c 1.155,4.236 19.169,48.207 54.043,131.913 M -455.203,0 c 0,2.419 1.403,4.207 4.208,5.362 h 0.495 c -0.66,-2.09 -2.228,-3.877 -4.703,-5.362 m -5.941,-20.129 v -2.393 h 3.548 c 3.575,0 5.941,1.568 7.096,4.703 7.81,2.309 15.153,6.682 22.03,13.117 v 0.495 c 0,0.769 -0.413,1.182 -1.238,1.237 h -2.392 c -9.076,-7.095 -15.017,-10.642 -17.822,-10.642 -1.046,4.785 -2.228,7.92 -3.548,9.405 5.169,4.29 7.756,7.094 7.756,8.414 0,2.75 -1.403,4.125 -4.208,4.125 h -2.311 c -3.906,0 -6.462,-2.557 -7.673,-7.672 v -1.897 c 3.52,-6.93 5.281,-11.468 5.281,-13.613 -3.025,-1.54 -5.198,-3.299 -6.519,-5.279" /></g></g></g></g></svg>
